<?xml version="1.0" standalone="no"?>
<!DOCTYPE svg PUBLIC "-//W3C//DTD SVG 20010904//EN"
 "http://www.w3.org/TR/2001/REC-SVG-20010904/DTD/svg10.dtd">
<svg version="1.0" xmlns="http://www.w3.org/2000/svg"
 width="512.000000pt" height="512.000000pt" viewBox="0 0 512.000000 512.000000"
 preserveAspectRatio="xMidYMid meet">

<g transform="translate(0.000000,512.000000) scale(0.100000,-0.100000)"
fill="#1D4ED8 " stroke="none">
<path d="M3395 3559 c-174 -40 -339 -126 -535 -277 -47 -36 -184 -163 -305
-283 -236 -233 -307 -287 -418 -321 -113 -34 -196 -10 -286 80 -60 60 -101
124 -195 302 -89 167 -138 234 -218 301 -345 287 -831 115 -1069 -379 -53
-110 -99 -253 -99 -309 0 -95 58 -136 157 -111 45 11 45 11 71 -23 56 -73 89
-99 124 -99 48 0 74 23 94 83 59 178 152 359 228 444 54 60 91 78 143 68 63
-12 107 -69 201 -265 101 -211 171 -319 257 -398 118 -108 252 -162 400 -162
147 0 287 50 457 164 113 75 203 150 448 375 318 293 405 360 541 426 70 33
175 62 186 51 3 -3 -14 -38 -37 -78 -101 -172 -244 -357 -495 -643 -214 -243
-272 -335 -321 -505 -23 -79 -26 -105 -22 -188 7 -139 32 -197 122 -288 144
-144 324 -192 556 -148 114 21 229 63 420 154 250 118 317 135 429 106 150
-38 256 -170 312 -386 12 -47 29 -93 37 -102 25 -30 70 -23 107 16 25 27 37
33 58 29 43 -8 73 4 87 37 10 24 9 43 -5 107 -51 232 -169 405 -366 535 -121
80 -181 100 -316 106 -156 6 -262 -14 -532 -105 -241 -80 -327 -96 -409 -74
-87 24 -92 80 -18 214 64 119 148 233 323 440 201 237 284 347 338 449 56 108
75 174 75 269 0 187 -95 332 -251 380 -66 21 -201 24 -274 8z m300 -71 c107
-56 167 -158 173 -295 5 -98 -13 -167 -70 -273 -53 -99 -110 -175 -314 -417
-338 -400 -446 -594 -385 -690 35 -55 72 -68 191 -67 97 1 114 4 225 43 313
111 436 141 587 141 160 0 238 -29 386 -140 94 -71 156 -144 213 -253 40 -76
94 -259 85 -284 -9 -22 -44 -15 -48 9 -5 34 -36 35 -50 1 -19 -44 -48 -83 -62
-83 -8 0 -22 35 -36 87 -60 226 -185 377 -350 419 -117 30 -230 4 -440 -101
-438 -218 -715 -232 -923 -46 -99 89 -132 175 -124 320 10 196 83 332 328 611
275 312 474 577 533 708 23 51 16 89 -19 98 -39 10 -156 -21 -242 -65 -133
-66 -252 -161 -558 -445 -417 -387 -617 -506 -850 -506 -95 0 -166 19 -252 66
-137 76 -236 200 -346 435 -87 185 -102 213 -139 255 -37 42 -98 73 -142 74
-125 1 -263 -186 -385 -516 -24 -66 -32 -79 -52 -82 -34 -4 -103 85 -94 121
10 38 -9 41 -79 13 -36 -14 -72 -26 -82 -26 -31 0 -54 30 -54 71 0 83 94 311
183 444 53 79 179 202 250 244 220 130 465 118 647 -31 77 -63 125 -129 215
-298 131 -245 193 -325 297 -381 57 -31 71 -34 143 -34 71 0 88 4 155 36 113
55 155 89 389 321 332 329 528 462 774 529 107 28 254 23 322 -13z"/>
</g>
</svg>
