<?xml version="1.0" standalone="no"?>
<!DOCTYPE svg PUBLIC "-//W3C//DTD SVG 20010904//EN"
 "http://www.w3.org/TR/2001/REC-SVG-20010904/DTD/svg10.dtd">
<svg version="1.0" xmlns="http://www.w3.org/2000/svg"
 width="512.000000pt" height="512.000000pt" viewBox="0 0 512.000000 512.000000"
 preserveAspectRatio="xMidYMid meet">

<g transform="translate(0.000000,512.000000) scale(0.100000,-0.100000)"
fill="#60A5FA" stroke="none">
<path d="M4216 3633 c-140 -29 -265 -96 -373 -196 -65 -61 -153 -174 -153
-197 0 -6 8 -24 19 -38 10 -15 32 -54 49 -87 94 -188 113 -425 53 -655 -23
-86 -21 -90 53 -90 70 0 121 18 170 62 50 43 71 88 81 171 6 48 10 57 24 52
99 -41 193 -45 259 -11 51 26 109 92 126 143 33 97 14 184 -65 299 -26 38 -28
45 -13 41 163 -48 269 -33 328 47 75 101 54 232 -55 336 -121 116 -316 164
-503 123z m127 -219 c21 -4 36 -11 34 -17 -1 -5 -35 -18 -74 -27 -90 -24 -195
-76 -256 -130 -26 -23 -71 -78 -99 -121 -55 -85 -78 -92 -58 -18 19 68 48 118
103 177 64 66 122 102 207 124 73 19 89 20 143 12z m-73 -523 c0 -16 -51 -62
-85 -77 -41 -17 -104 -18 -156 -3 -39 12 -98 64 -86 76 4 3 30 1 58 -5 65 -15
145 -14 189 3 41 16 80 19 80 6z"/>
<path d="M3010 3386 c-89 -26 -173 -77 -246 -150 -111 -111 -168 -233 -194
-415 -7 -45 -17 -84 -22 -87 -6 -4 -49 32 -97 79 -104 103 -190 159 -290 191
-155 49 -290 43 -417 -19 -175 -85 -284 -275 -284 -495 1 -215 78 -390 249
-560 105 -104 199 -169 356 -248 196 -98 347 -148 707 -237 l187 -46 33 37
c18 21 77 87 131 148 381 425 559 753 583 1073 11 154 -30 330 -107 458 -68
114 -194 218 -314 260 -64 23 -215 29 -275 11z"/>
<path d="M795 2574 c-256 -57 -448 -231 -487 -443 -30 -160 66 -301 204 -301
70 0 114 22 189 96 l67 66 4 -98 c5 -111 22 -156 80 -210 57 -54 95 -69 178
-69 57 0 84 5 116 22 41 22 103 83 124 123 12 22 13 21 67 -34 69 -69 120 -90
202 -84 43 3 72 12 107 34 79 49 79 52 -15 140 -45 43 -102 103 -127 135 -104
135 -171 307 -181 466 l-6 92 -39 16 c-148 59 -347 79 -483 49z m231 -205 c32
-6 82 -22 110 -35 58 -27 133 -88 122 -99 -4 -5 -43 6 -86 23 -153 61 -256 62
-432 6 -45 -14 -84 -23 -87 -20 -10 9 55 63 105 87 47 24 135 47 183 48 14 1
52 -4 85 -10z m284 -324 c0 -31 -30 -93 -57 -117 -54 -49 -168 -73 -208 -44
-22 16 -24 15 79 51 31 11 70 39 110 76 33 32 64 58 69 59 4 0 7 -11 7 -25z"/>
</g>
</svg>
