<?xml version="1.0" standalone="no"?>
<!DOCTYPE svg PUBLIC "-//W3C//DTD SVG 20010904//EN"
 "http://www.w3.org/TR/2001/REC-SVG-20010904/DTD/svg10.dtd">
<svg version="1.0" xmlns="http://www.w3.org/2000/svg"
 width="512.000000pt" height="512.000000pt" viewBox="0 0 512.000000 512.000000"
 preserveAspectRatio="xMidYMid meet">

<g transform="translate(0.000000,512.000000) scale(0.100000,-0.100000)"
fill="#1D4ED8" stroke="none">
<path d="M4253 4838 c-12 -14 -28 -56 -38 -103 -51 -232 -147 -473 -222 -556
-75 -83 -75 -83 -453 -90 -371 -6 -388 -8 -485 -73 -93 -62 -163 -169 -185
-286 -5 -29 -10 -183 -10 -341 l0 -289 -29 -32 -29 -33 -339 -5 -339 -5 -69
-34 c-90 -45 -162 -117 -206 -206 l-34 -70 -5 -338 -5 -339 -33 -29 -32 -29
-288 0 c-165 0 -314 -5 -347 -11 -171 -31 -308 -166 -344 -337 -7 -36 -11
-259 -11 -686 0 -626 0 -634 21 -660 26 -33 68 -35 96 -3 12 13 29 61 43 122
50 222 147 459 220 539 75 81 101 86 448 86 331 0 375 6 471 63 100 60 178
175 201 296 5 30 10 184 10 342 l0 289 29 32 29 33 339 5 338 5 68 32 c88 42
164 118 208 208 l34 70 5 337 5 338 28 27 27 28 323 5 c279 4 329 8 378 24
121 41 226 142 272 262 22 59 22 63 25 720 3 659 3 661 -18 687 -27 34 -69 36
-97 5z"/>
</g>
</svg>
